Subj06walk_36
version=1
nRows=40
nColumns=19
inDegrees=no
endheader
time	l_ground_force_vx	l_ground_force_vy	l_ground_force_vz	l_ground_force_px	l_ground_force_py	l_ground_force_pz	ground_force_vx	ground_force_vy	ground_force_vz	ground_force_px	ground_force_py	ground_force_pz	l_ground_torque_x	l_ground_torque_y	l_ground_torque_z	ground_torque_x	ground_torque_y	ground_torque_z	
0	0	0	0	0	0	0	30.5598152764302	542.806937689691	-16.1963993881154	-0.0357196741698925	0	0.0435483550548971	0	0	0	0	3.45771340330415	0
0.01	0	0	0	0	0	0	36.5832928945287	555.424091615105	-16.9984505927801	-0.0448916210226071	0	0.0440345996503883	0	0	0	0	3.94045941341249	0
0.02	0	0	0	0	0	0	42.7087598545153	565.392120130858	-17.12263566699	-0.0539557636533584	0	0.0442840644838386	0	0	0	0	4.39932626808022	0
0.03	0	0	0	0	0	0	48.5494933855603	571.649631830707	-16.7545972202868	-0.0624438681577822	0	0.0442534395991585	0	0	0	0	4.73921383834673	0
0.04	0	0	0	0	0	0	54.0115466682355	573.716660466005	-16.2735675398098	-0.0702149670729745	0	0.0440732739983574	0	0	0	0	4.92268860152604	0
0.05	12.1666305831488	34.5084384685879	1.212491436282	0.274804627551412	0	-0.0364609890947497	59.1033643555848	571.414591057222	-15.8024379626357	-0.0774059894446184	0	0.0437675174461388	0	-0.792042059954945	0	0	4.90186192129578	0
0.06	19.825739740097	63.4930796966071	0.329041757413877	0.275886491656231	0	-0.0501264760820554	63.812187534289	565.013436888487	-15.0194924023885	-0.0843852975877961	0	0.0434378884084335	0	-0.923286800464947	0	0	4.81299887151372	0
0.07	22.9096052942451	96.5431511743928	-1.89864965343747	0.271055648540981	0	-0.0546936706314509	68.0497075693606	554.597763058511	-13.7500874760077	-0.0916598001701976	0	0.0431501837278442	0	-0.459977633235515	0	0	4.76756240949548	0
0.08	20.7660643974585	133.2602296911	-4.87552983093586	0.267341571589187	0	-0.0567519745011673	71.9394810588881	539.723309807324	-11.967044473244	-0.0996064800030585	0	0.0429113644303089	0	0.355990194538914	0	0	4.84682426432275	0
0.09	14.0047308901601	175.41617508533	-7.60926272351275	0.265892156996783	0	-0.0583382250130921	75.4421730267959	519.296518476209	-9.8167811632737	-0.108117293026796	0	0.0425479070142092	0	1.33366488537541	0	0	5.08826546635489	0
0.1	2.57212039855866	225.122824502519	-8.82676378395504	0.267148296061144	0	-0.0597890238106387	77.985089744941	492.078500861829	-7.47416263953732	-0.116835406333476	0	0.0420667626408154	0	2.28957706827372	0	0	5.31032100982769	0
0.11	-12.4659882215247	283.160794042955	-8.05798400730746	0.270560581674837	0	-0.0611579692563593	78.7283423310366	457.004280102549	-4.94990013746486	-0.125304171811105	0	0.0415170240277004	0	3.05577293675993	0	0	5.43309404986583	0
0.12	-29.2279431786872	344.227519449575	-5.79833129338943	0.274210295327909	0	-0.0622530775102106	77.0066192881405	413.594835425457	-2.03022466695637	-0.133225057450937	0	0.0409983768912455	0	3.65657289065548	0	0	5.48615463475471	0
0.13	-44.5243644044004	397.696360936739	-2.9890162524955	0.276273104361277	0	-0.0631351403737706	72.13786484238	362.305253365358	1.26354037857473	-0.14081652133732	0	0.0403996724741611	0	4.15631300963557	0	0	5.43470287412604	0
0.14	-55.7030699448198	435.427954954256	0.484332201251563	0.275976744409931	0	-0.0639859824669807	64.0198828132823	305.172494282862	4.29205545094523	-0.14867191653679	0	0.0395409225503071	0	4.43371293037726	0	0	5.3614071944681	0
0.15	-62.4929935050748	457.920016072445	5.23812821932054	0.273015216433448	0	-0.0650706111225141	53.4220286868254	245.857396304976	6.28045535594594	-0.157301172444875	0	0.0382926945165902	0	4.21630559594111	0	0	5.22122238518453	0
0.16	-66.1047135101339	471.562337600488	11.0364874881276	0.267738702511587	0	-0.0664294869575897	41.9390024158925	188.803237267434	6.75736152723143	-0.166704186715759	0	0.0367378589481829	0	3.60823201615414	0	0	4.80839016664246	0
0.17	-67.6957614050327	482.63049355975	16.7513496588124	0.261027339900702	0	-0.0678263009817845	31.2461741899779	137.690744690613	5.69565828170521	-0.176954185988411	0	0.0349248271812155	0	2.89493908192653	0	0	4.06397045861813	0
0.18	-68.1955347948033	494.674902544001	21.3741772847656	0.253847682365856	0	-0.0689471051860117	22.3277118665994	94.7154695947345	3.59004772048959	-0.188982795011053	0	0.032605026510536	0	2.29749703057563	0	0	3.10630309675941	0
0.19	-68.4486479061678	508.591365798004	24.5184972354672	0.246951606775178	0	-0.0694804251541754	15.2498323805387	60.8768319105387	1.2944624185769	-0.205317448491957	0	0.0293120410083125	0	2.05842291034926	0	0	2.14785399246724	0
0.2	-68.4375954429873	523.801793735885	26.2535563835434	0.240281155655463	0	-0.0693857914316352	9.89035890304172	35.9742375656484	-0.395104998427364	-0.230516848736739	0	0.0236765985240361	0	2.07571573975751	0	0	1.31630544771203	0
0.21	-67.5556700021063	539.241114249385	27.06297685072	0.23361493544015	0	-0.0687752579042524	0	0	0	0	0	0	0	2.09765058169009	0	0	0	0
0.22	-65.6755270851394	554.135341454121	27.3972471750295	0.226670773134182	0	-0.0679686102269105	0	0	0	0	0	0	0	2.04388906670208	0	0	0	0
0.23	-62.9164302229724	567.499102400168	27.4767258168164	0.219267564881971	0	-0.0672387844351495	0	0	0	0	0	0	0	1.91598987783559	0	0	0	0
0.24	-59.4567359678041	578.104980555916	27.58654838091	0.211488794163017	0	-0.0667203390741998	0	0	0	0	0	0	0	1.76135355264597	0	0	0	0
0.25	-55.4723997700004	584.954231666792	28.0644175923952	0.203656228968345	0	-0.0664073747330193	0	0	0	0	0	0	0	1.52497598652342	0	0	0	0
0.26	-51.3953270795928	587.703417163352	28.8009364138272	0.196053029818996	0	-0.0662703828555636	0	0	0	0	0	0	0	1.07143579125559	0	0	0	0
0.27	-47.8632289997831	586.704582057591	29.3651194923547	0.188968058082797	0	-0.0662891969156063	0	0	0	0	0	0	0	0.523411050671934	0	0	0	0
0.28	-45.1787230816626	582.688469688146	29.3954384698679	0.182514194431337	0	-0.0664770515623986	0	0	0	0	0	0	0	0.109941105945749	0	0	0	0
0.29	-43.0810428749026	576.113791404883	28.7901337629498	0.176561739269597	0	-0.0666921851842247	0	0	0	0	0	0	0	0.020880684071154	0	0	0	0
0.3	-41.0160060543636	567.49582556627	27.7173305484793	0.170920071925293	0	-0.0668758795640752	0	0	0	0	0	0	0	0.196280054315311	0	0	0	0
0.31	-38.8041971683015	557.507074283365	26.4493738777004	0.16530250067608	0	-0.0670311402470869	0	0	0	0	0	0	0	0.528985769389813	0	0	0	0
0.32	-36.3094527369292	546.995126990519	25.0889886249448	0.159185211507093	0	-0.067202472487528	0	0	0	0	0	0	0	0.852428353486616	0	0	0	0
0.33	-33.5361948554067	536.80974553837	23.725519884829	0.152374136872834	0	-0.0674033022148457	0	0	0	0	0	0	0	0.979563154980167	0	0	0	0
0.34	-30.5274853778948	527.540276420252	22.6009852101698	0.145091958547131	0	-0.0675367767906651	0	0	0	0	0	0	0	0.953210615174916	0	0	0	0
0.35	-27.587807595284	519.366348624758	21.7326049414592	0.137830339669056	0	-0.0674580240454154	0	0	0	0	0	0	0	0.866259431600317	0	0	0	0
0.36	-25.2124231790094	512.286022076016	21.0419727567817	0.131075257611478	0	-0.0670605044516961	0	0	0	0	0	0	0	0.830478337752893	0	0	0	0
0.37	-23.4871116309585	506.396374155233	20.3450277288149	0.124634011408217	0	-0.0663672884131807	0	0	0	0	0	0	0	0.881961959663506	0	0	0	0
0.38	-22.2266569839666	501.716974862134	19.6358880551727	0.118045145272219	0	-0.065438300010271	0	0	0	0	0	0	0	0.945139939920915	0	0	0	0
0.39	-21.169819811989	498.16818135399	18.9630050223908	0.111165051126573	0	-0.0644202801450205	0	0	0	0	0	0	0	0.988563491361136	0	0	0	0
